<?xml version="1.0" encoding="UTF-8" standalone="no"?>
<!-- Created with Inkscape (http://www.inkscape.org/) -->

<svg
   xmlns:dc="http://purl.org/dc/elements/1.1/"
   xmlns:cc="http://creativecommons.org/ns#"
   xmlns:rdf="http://www.w3.org/1999/02/22-rdf-syntax-ns#"
   xmlns:svg="http://www.w3.org/2000/svg"
   xmlns="http://www.w3.org/2000/svg"
   xmlns:sodipodi="http://sodipodi.sourceforge.net/DTD/sodipodi-0.dtd"
   xmlns:inkscape="http://www.inkscape.org/namespaces/inkscape"
   id="svg2"
   version="1.1"
   inkscape:version="0.91 r13725"
   xml:space="preserve"
   width="755.97839"
   height="242.7222"
   viewBox="0 0 755.97841 242.7222"
   sodipodi:docname="Trans Lifeline white text.svg"><metadata
     id="metadata8"><rdf:RDF><cc:Work
         rdf:about=""><dc:format>image/svg+xml</dc:format><dc:type
           rdf:resource="http://purl.org/dc/dcmitype/StillImage" /><dc:title></dc:title></cc:Work></rdf:RDF></metadata><defs
     id="defs6" /><sodipodi:namedview
     pagecolor="#ffffff"
     bordercolor="#666666"
     borderopacity="1"
     objecttolerance="10"
     gridtolerance="10"
     guidetolerance="10"
     inkscape:pageopacity="1"
     inkscape:pageshadow="2"
     inkscape:window-width="1920"
     inkscape:window-height="1057"
     id="namedview4"
     showgrid="false"
     inkscape:zoom="1.442807"
     inkscape:cx="380.23628"
     inkscape:cy="157.69829"
     inkscape:window-x="-8"
     inkscape:window-y="-8"
     inkscape:window-maximized="1"
     inkscape:current-layer="g12"
     fit-margin-top="0"
     fit-margin-left="0"
     fit-margin-right="0"
     fit-margin-bottom="0" /><g
     id="g10"
     inkscape:groupmode="layer"
     inkscape:label="Trans Lifeline RGB"
     transform="matrix(1.25,0,0,-1.25,-87.641877,242.7222)"><g
       id="g12"
       transform="scale(0.24,0.24)"><g
         id="g4848"
         style="stroke:#ffffff;stroke-opacity:1;fill:#ffffff;fill-opacity:1"><path
           inkscape:connector-curvature="0"
           id="path14"
           style="fill:#ffffff;fill-opacity:1;fill-rule:nonzero;stroke:#ffffff;stroke-opacity:1"
           d="m 848.895,198.883 -0.903,-2.801 c -4.496,-12.816 -9.66,-27.309 -17.758,-41.129 C 789.105,84.1523 742.027,33.1367 690.453,3.58594 L 684.266,0 677.309,1.57031 C 619.102,14.1484 558.855,48.5352 498.301,103.605 c -12.133,11.004 -21.594,23.59 -29.785,34.61 l -1.004,1.344 c -25.395,34.953 -37.094,72.925 -34.719,109.894 0.766,12.254 3.137,24.277 6.953,36.195 0.109,0.215 0.328,0.555 0.438,0.899 11.808,30.332 48.656,61.687 93.058,58.871 14.375,-0.328 30.113,-3.59 46.395,-9.547 20.918,-7.641 38.562,-15.738 50.812,-21.68 -5.969,-11.363 -12.136,-22.148 -18.898,-32.027 -11.235,5.391 -26.735,12.363 -44.598,18.981 -12.465,4.492 -24.383,6.976 -35.398,7.3 -1.582,0.129 -2.594,0.129 -3.602,0.129 -24.824,0 -46.965,-18.316 -53.265,-35.179 0,-0.227 -0.114,-0.438 -0.114,-0.672 -3.926,-12.137 -5.394,-24.727 -4.824,-37.528 1.117,-24.617 10.336,-49.898 27.52,-73.73 l 0.793,-1.125 c 7.308,-9.664 15.515,-20.668 25.175,-29.328 53.153,-48.4222 105.301,-79.2151 154.969,-91.6839 43.586,26.8516 83.926,72.0239 120.117,134.1639 6.301,10.899 10.781,23.715 14.731,34.953 l 0.898,2.356 c 13.914,42.25 9.324,82.82 -12.926,113.726 -8.781,11.114 -27.304,19.321 -44.839,19.321 -6.629,0 -13.04,-1.121 -18.989,-3.368 -10.902,-3.933 -21.574,-9.777 -32.039,-17.988 -30.906,-23.933 -51.687,-46.281 -51.906,-46.515 l -5.731,-6.176 c 15.957,25.054 29.672,53.937 41.239,86.527 11.676,8.195 23.703,14.61 35.73,18.875 9.551,3.711 20.457,5.731 31.696,5.731 28.992,0 58.203,-13.489 74.378,-34.168 29.887,-41.453 36.301,-93.715 18.329,-147.883" /><path
           inkscape:connector-curvature="0"
           id="path16"
           style="fill:#ffffff;fill-opacity:1;fill-rule:nonzero;stroke:#ffffff;stroke-opacity:1"
           d="m 702.809,513.418 c -11.125,-7.633 -22.254,-14.27 -33.141,-20.227 -5.859,26.977 -19.113,49.895 -39.461,66.184 -7.285,5.512 -19.422,9 -31.668,9 -12.824,0 -24.848,-3.707 -34.062,-10.57 -9.547,-6.625 -18.2,-15.164 -26.079,-25.735 -0.437,-0.445 -0.656,-0.894 -1.007,-1.347 -8.645,-11.575 -15.844,-22.364 -21.575,-31.457 -9.652,-15.403 -15.054,-25.743 -15.168,-25.848 l -6.734,-13.148 -14.266,3.714 c -0.351,0 -29.894,7.524 -68.894,10.786 -3.594,0.218 -7.414,0.445 -11.121,0.445 -8.879,0 -17.305,-1.016 -24.945,-2.805 -25.286,-5.402 -43.719,-29.562 -45.399,-49 -1.922,-37.308 16.406,-73.719 51.348,-101.812 l 1.238,-0.887 c 9.547,-7.422 20.457,-15.852 31.91,-21.703 8.887,-4.481 17.754,-8.645 26.399,-12.461 -0.11,-0.344 -0.329,-0.684 -0.438,-0.899 -3.816,-11.918 -6.187,-23.941 -6.953,-36.195 -11.809,5.055 -23.621,10.461 -35.754,16.531 -14.601,7.411 -26.957,16.965 -37.867,25.387 l -1.34,1.125 c -44.84,35.852 -67.992,83.266 -65.512,133.496 2.918,33.832 31.461,73.488 74.16,82.488 13.825,3.36 30.903,4.485 47.305,3.137 25.852,-2.125 47.645,-5.945 60.903,-8.644 3.949,6.625 9.437,15.726 16.417,26.175 5.043,7.75 11.016,16.301 17.645,25.18 1.668,2.125 3.359,4.149 5.051,6.18 8.996,10.894 18.762,20.222 29.207,27.41 15.168,11.234 34.613,17.418 55.531,17.418 20.211,0 39.988,-6.063 54.387,-16.633 24.14,-19.551 40.996,-45.281 49.883,-75.285" /><path
           inkscape:connector-curvature="0"
           id="path18"
           style="fill:#ffffff;fill-opacity:1;fill-rule:nonzero;stroke:#ffffff;stroke-opacity:1"
           d="m 709.766,450.945 -0.215,-2.812 c -0.906,-13.59 -1.914,-28.883 -6.063,-44.496 -4.386,-16.633 -9.324,-32.25 -14.726,-47.309 -11.567,-32.59 -25.282,-61.473 -41.239,-86.527 -11.808,-18.434 -24.601,-35.059 -38.648,-49.223 l -4.961,-5.055 -7.176,-0.339 c -4.722,-0.344 -9.57,-0.446 -14.402,-0.446 -35.043,0 -72.691,6.848 -112.586,20.457 -0.57,12.801 0.898,25.391 4.824,37.528 40.449,-14.508 78.223,-21.688 112.942,-20.91 8.543,9.109 16.507,19.335 24.035,30.351 6.762,9.879 12.929,20.664 18.898,32.027 14.813,28.418 27.301,61.356 37.176,98.879 3.273,12.246 4.172,25.739 5.07,37.532 l 0.114,2.593 c 12.246,5.946 24.492,12.914 36.742,20.672 0.566,-7.531 0.679,-15.051 0.215,-22.922" /><path
           inkscape:connector-curvature="0"
           id="path20"
           style="fill:#ffffff;fill-opacity:1;fill-rule:nonzero;stroke:#ffffff;stroke-opacity:1"
           d="m 818.43,570.953 -1.559,-2.25 c -8.101,-10.898 -17.316,-23.375 -29.105,-34.269 -26.184,-24.274 -52.254,-44.282 -78.215,-60.567 -12.25,-7.758 -24.496,-14.726 -36.742,-20.672 -21.137,-10.23 -42.254,-17.879 -63.036,-22.703 l -6.976,-1.57 -6.172,3.476 c -28.332,15.957 -55.305,38.426 -80.809,66.868 5.731,9.093 12.93,19.882 21.575,31.457 22.586,-26.403 46.418,-47.418 71.132,-62.364 20.016,5.282 40.45,13.594 61.145,24.832 10.887,5.957 22.016,12.594 33.141,20.227 19.668,13.484 39.656,29.555 59.789,48.098 9.328,8.648 17.289,19.554 24.382,29.214 l 1.446,1.907 c 25.746,36.304 33.273,76.426 20.914,112.492 -6.402,16.738 -30.57,35.73 -56.293,33.934 -11.59,-0.563 -23.504,-3.153 -35.859,-7.75 -36.633,-13.825 -63.04,-29.227 -63.254,-29.333 l -12.707,-7.417 -10.118,10.675 c -0.222,0.219 -21.226,22.473 -52.48,46.067 -10.555,7.984 -21.219,13.828 -31.691,17.308 -6.278,2.36 -12.465,3.492 -18.875,3.492 -17.754,0 -36.52,-8.429 -45.606,-20.347 -21.578,-30.676 -25.75,-71.133 -11.242,-113.598 l 0.445,-1.133 c 4.168,-11.457 8.758,-24.492 15.406,-35.625 8.754,-14.601 17.622,-28.199 26.735,-40.894 -1.692,-2.031 -3.383,-4.055 -5.051,-6.18 -6.629,-8.879 -12.602,-17.43 -17.645,-25.18 -12.359,16.301 -24.277,33.938 -35.843,53.278 -8.426,14.148 -13.715,28.976 -18.438,42.137 l -0.566,1.335 c -18.551,54.278 -12.688,106.645 16.305,147.774 16.617,21.687 46.066,35.402 75.5,35.402 10.91,0 21.464,-1.804 31.367,-5.511 13.582,-4.61 27.738,-12.368 41.566,-22.7 20.676,-15.73 37.09,-30.675 46.859,-40.113 12.024,6.289 31.911,15.953 56.184,25.164 16.195,6.07 32.02,9.449 46.969,10.008 1.469,0.105 3.597,0.219 5.613,0.219 42.387,0 76.754,-30.114 87.555,-58.438 16.394,-48.312 7.199,-100.226 -25.746,-146.75" /></g><g
         id="g4833"
         transform="translate(133.99806,6.5731846)"
         style="fill:#ffffff;fill-opacity:1;stroke:#ffffff;stroke-opacity:1"><path
           inkscape:connector-curvature="0"
           id="path22"
           style="fill:#ffffff;fill-opacity:1;fill-rule:nonzero;stroke:#ffffff;stroke-opacity:1"
           d="m 967.06771,700.28823 298.94849,0 0,-40.16518 -112.4288,0 0,-187.72783 -77.3504,0 0,187.72783 -109.16929,0 0,40.16518" /><path
           inkscape:connector-curvature="0"
           id="path24"
           style="fill:#ffffff;fill-opacity:1;fill-rule:nonzero;stroke:#ffffff;stroke-opacity:1"
           d="m 1475.2392,597.22909 c 26.9354,0 39.7563,4.44919 39.7563,31.99677 0,25.88895 -15.4775,32.29709 -39.7563,32.29709 l -91.7097,0 0,-64.29386 91.7097,0 z m -169.3743,103.05914 176.9283,0 c 63.1804,0 110.1209,-16.65791 110.1209,-71.06237 0,-56.42345 -41.9507,-63.12958 -64.3815,-67.09135 l 76.5326,-89.73929 -87.0204,0 -66.8533,86.23028 -67.9623,4.35912 0,-90.5894 -77.3643,0 0,227.89301" /><path
           inkscape:connector-curvature="0"
           id="path26"
           style="fill:#ffffff;fill-opacity:1;fill-rule:nonzero;stroke:#ffffff;stroke-opacity:1"
           d="m 1858.2488,561.51309 -45.439,81.33063 -48.6039,-81.33063 94.0429,0 z m -89.9541,138.77514 88.0136,0 131.3737,-227.89301 -82.3771,0 -28.7142,50.49582 -132.4825,0 -29.1762,-50.49582 -83.1163,0 136.479,227.89301" /><path
           inkscape:connector-curvature="0"
           id="path28"
           style="fill:#ffffff;fill-opacity:1;fill-rule:nonzero;stroke:#ffffff;stroke-opacity:1"
           d="m 2029.0554,700.28823 78.4961,0 160.4575,-147.25771 0,147.25771 77.3873,0 0,-227.89301 -77.3873,0 -161.035,145.5344 0,-145.5344 -77.9186,0 0,227.89301" /><path
           inkscape:connector-curvature="0"
           id="path30"
           style="fill:#ffffff;fill-opacity:1;fill-rule:nonzero;stroke:#ffffff;stroke-opacity:1"
           d="m 2397.627,643.28495 c 0,45.17342 47.5181,58.34774 109.428,58.89061 58.1675,0.67684 124.4203,-3.70997 156.3456,-9.04162 l 0,-34.27219 c -35.3673,1.77644 -115.0416,3.11167 -135.1161,3.11167 -33.8194,0.44352 -53.2933,-0.87552 -53.2933,-22.08889 l 0,-11.13685 c 0,-18.04627 12.2896,-21.94566 43.568,-21.94566 l 63.8734,0 c 79.3278,0 95.6369,-35.22857 95.6369,-60.38524 l 0,-15.19563 c 0,-51.74326 -57.1973,-61.31619 -111.8997,-61.31619 -69.0019,0 -114.2331,2.38169 -156.0453,9.33962 l 0,34.24448 c 22.0842,-1.25438 89.4921,-3.42816 140.8449,-3.42816 23.2855,0 49.7821,2.1553 49.7821,19.62636 l 0,12.26186 c 0,12.95024 -6.9996,21.2688 -36.5222,21.2688 l -62.1409,0 c -97.5542,0 -104.4614,40.59024 -104.4614,60.41527 l 0,19.65176" /><path
           inkscape:connector-curvature="0"
           id="path32"
           style="fill:#ffffff;fill-opacity:1;fill-rule:nonzero;stroke:#ffffff;stroke-opacity:1"
           d="m 973.34879,322.62878 42.33891,0 0,-171.57814 c 0,-16.48466 10.035,-16.17973 18.8133,-16.17973 l 76.0083,0 0,-40.153633 -90.9591,0 c -24.19338,0 -46.20141,9.175593 -46.20141,44.369513 l 0,183.54199" /><path
           inkscape:connector-curvature="0"
           id="path34"
           style="fill:#ffffff;fill-opacity:1;fill-rule:nonzero;stroke:#ffffff;stroke-opacity:1"
           d="m 1212.3072,94.717277 42.3844,0 0,227.911953 -42.3844,0 0,-227.911953 z" /><path
           inkscape:connector-curvature="0"
           id="path36"
           style="fill:#ffffff;fill-opacity:1;fill-rule:nonzero;stroke:#ffffff;stroke-opacity:1"
           d="m 1361.3528,274.60473 c 0,37.19443 24.9488,48.60157 48.165,48.02405 0,0 78.0341,-2.26618 97.4618,-5.00824 l 0,-36.01399 -87.4824,0 c -15.6853,0 -15.6853,-9.03237 -15.6853,-17.4341 l 0,-35.54504 89.4227,-3.29186 0,-35.85228 -89.4227,-2.94995 0,-91.816043 -42.4591,0 0,179.887453" /><path
           inkscape:connector-curvature="0"
           id="path38"
           style="fill:#ffffff;fill-opacity:1;fill-rule:nonzero;stroke:#ffffff;stroke-opacity:1"
           d="m 1608.8306,275.29082 c 0,39.5507 27.2357,47.73528 48.1187,47.33796 0,0 78.0341,-2.26618 97.508,-5.00824 l 0,-36.01399 -87.5054,0 c -15.7777,0 -15.7777,-9.03237 -15.7777,-17.4341 l 0,-35.54504 89.4689,-3.29186 0,-35.85228 -89.4689,-2.94995 0,-35.53581 c 0.1388,-16.49621 10.0025,-16.19821 18.8269,-16.19821 l 84.4562,0 0,-35.725221 c -17.1407,-2.400171 -94.4356,-5.296996 -94.4356,-5.296996 -19.8204,-0.882445 -51.1911,3.700732 -51.1911,45.741697 l 0,135.77204" /><path
           inkscape:connector-curvature="0"
           id="path40"
           style="fill:#ffffff;fill-opacity:1;fill-rule:nonzero;stroke:#ffffff;stroke-opacity:1"
           d="m 1857.1168,322.62878 42.3436,0 0,-171.57814 c 0,-16.48466 10.0258,-16.17973 18.804,-16.17973 l 75.955,0 0,-40.153633 -90.9705,0 c -24.1171,0 -46.1321,9.175593 -46.1321,44.369513 l 0,183.54199" /><path
           inkscape:connector-curvature="0"
           id="path42"
           style="fill:#ffffff;fill-opacity:1;fill-rule:nonzero;stroke:#ffffff;stroke-opacity:1"
           d="m 2096.0704,94.717277 42.3393,0 0,227.911953 -42.3393,0 0,-227.911953 z" /><path
           inkscape:connector-curvature="0"
           id="path44"
           style="fill:#ffffff;fill-opacity:1;fill-rule:nonzero;stroke:#ffffff;stroke-opacity:1"
           d="m 2245.994,322.62878 42.9442,0 87.8982,-147.2762 0,147.2762 42.3898,0 0,-227.911503 -42.3898,0 -88.1985,145.543643 0,-145.543643 -42.6439,0 0,227.911503" /><path
           inkscape:connector-curvature="0"
           id="path46"
           style="fill:#ffffff;fill-opacity:1;fill-rule:nonzero;stroke:#ffffff;stroke-opacity:1"
           d="m 2526.2285,275.29082 c 0,39.5507 27.2358,47.73528 48.0957,47.33796 0,0 78.0342,-2.26618 97.5081,-5.00824 l 0,-36.01399 -87.5285,0 c -15.7086,0 -15.7086,-9.03237 -15.7086,-17.4341 l 0,-35.54504 89.446,-3.29186 0,-35.85228 -89.446,-2.94995 0,-35.53581 c 0.1162,-16.49621 10.0027,-16.19821 18.7809,-16.19821 l 84.4562,0 0,-35.725221 c -17.1869,-2.400171 -94.4588,-5.296996 -94.4588,-5.296996 -19.7742,-0.882445 -51.145,3.700732 -51.145,45.741697 l 0,135.77204" /></g></g></g></svg>